<?xml version="1.0" encoding="utf-8"?>
<!-- Generator: Adobe Illustrator 26.0.3, SVG Export Plug-In . SVG Version: 6.00 Build 0)  -->
<svg version="1.1" id="Layer_1" xmlns="http://www.w3.org/2000/svg" xmlns:xlink="http://www.w3.org/1999/xlink" x="0px" y="0px"
	 viewBox="0 0 283.46 198.43" style="enable-background:new 0 0 283.46 198.43;" xml:space="preserve">
<style type="text/css">
	.st0{fill:#FFFFFF;}
	.st1{fill:none;stroke:#000000;stroke-linejoin:round;stroke-miterlimit:10;}
	.st2{font-family:'MyriadPro-Regular';}
	.st3{font-size:12px;}
	.st4{fill:none;stroke:#000000;stroke-width:2;stroke-linejoin:round;}
</style>
<rect class="st0" width="283.46" height="198.43"/>
<rect x="79.18" y="51.37" class="st1" width="132.24" height="18.93"/>
<rect x="71.76" y="18.43" class="st1" width="147.09" height="17.87"/>
<rect x="68.35" y="85.38" class="st1" width="153.91" height="35.26"/>
<text transform="matrix(1 0 0 1 100.5157 31.5372)" class="st2 st3">Задание системы</text>
<text transform="matrix(1 0 0 1 102.982 65.026)" class="st2 st3">Вычисление сил</text>
<text transform="matrix(1 0 0 1 100.0846 99.0626)"><tspan x="0" y="0" class="st2 st3">Интегрирование </tspan><tspan x="-10.48" y="14.4" class="st2 st3">уравнений движения</tspan></text>
<text transform="matrix(1 0 0 1 89.0184 146.2225)"><tspan x="0" y="0" class="st2 st3">Вычисление значений </tspan><tspan x="-0.31" y="14.4" class="st2 st3">наблюдаемых величин</tspan></text>
<rect x="68.35" y="132.89" class="st1" width="153.91" height="35.26"/>
<g>
	<g>
		<line class="st4" x1="145.31" y1="36.3" x2="145.31" y2="48.22"/>
		<g>
			<polygon points="148.95,47.73 141.66,47.73 145.31,51.37 			"/>
		</g>
	</g>
</g>
<g>
	<g>
		<line class="st4" x1="145.31" y1="70.3" x2="145.31" y2="82.22"/>
		<g>
			<polygon points="148.95,81.74 141.66,81.74 145.31,85.38 			"/>
		</g>
	</g>
</g>
<g>
	<g>
		<line class="st4" x1="145.31" y1="120.64" x2="145.31" y2="129.73"/>
		<g>
			<polygon points="148.95,129.25 141.66,129.25 145.31,132.89 			"/>
		</g>
	</g>
</g>
<g>
	<g>
		<polyline class="st4" points="68.35,151.85 44.04,151.85 44.04,60.84 76.03,60.84 		"/>
		<g>
			<polygon points="75.54,57.19 75.54,64.48 79.18,60.84 			"/>
		</g>
	</g>
</g>
</svg>
