<?xml version="1.0" encoding="utf-8"?>
<!-- Generator: Adobe Illustrator 26.0.3, SVG Export Plug-In . SVG Version: 6.00 Build 0)  -->
<svg version="1.1" id="Layer_1" xmlns="http://www.w3.org/2000/svg" xmlns:xlink="http://www.w3.org/1999/xlink" x="0px" y="0px"
	 viewBox="0 0 411.89 214" style="enable-background:new 0 0 411.89 214;" xml:space="preserve">
<style type="text/css">
	.st0{fill:none;stroke:#000000;stroke-width:2;stroke-miterlimit:10;}
	.st1{font-family:'MyriadPro-Regular';}
	.st2{font-size:16px;}
</style>
<g>
	<g>
		<polyline class="st0" points="56.37,42.17 56.37,180.69 338.62,180.69 		"/>
		<g>
			<polygon points="53.46,44.16 56.36,33.31 59.27,44.16 			"/>
		</g>
		<g>
			<polygon points="336.64,183.59 347.48,180.69 336.64,177.78 			"/>
		</g>
	</g>
</g>
<g>
	<g>
		<path class="st0" d="M158.28,71.92c1.07-16.25,11.59-29.47,25.2-32.61c12.29-2.83,25.18,3.01,31.89,11.7
			c10.3,13.34,0.11,25.66,8.44,38.63c12.37,19.24,44.52,7.22,51.35,21.3c7.86,16.21-22.86,56.66-47.8,54.07
			c-17.35-1.8-19.38-23.13-37.72-25.16c-22.67-2.5-32.97,28.63-52.99,25.27c-16.28-2.73-32.63-27.22-25.21-43.28
			c2.36-5.11,6.71-8.48,10.96-10.68"/>
		<g>
			<rect x="157.3" y="65.42" transform="matrix(0.0792 -0.9969 0.9969 0.0792 74.0692 224.0242)" width="2" height="13"/>
		</g>
		<g>
			<path d="M120.17,112.38l-4.66-3.63l0.12-0.17l8.85,0.13c2.9-0.43,5.81-0.86,8.71-1.28c-2.46,1.61-4.91,3.21-7.36,4.82l-6.53,5.97
				l-0.19-0.02L120.17,112.38z"/>
		</g>
	</g>
</g>
<text transform="matrix(1 0 0 1 64.5533 41.9075)" class="st1 st2">p</text>
<text transform="matrix(1 0 0 1 332.5867 171.9972)" class="st1 st2">q</text>
</svg>
