<?xml version="1.0" encoding="utf-8"?>
<!-- Generator: Adobe Illustrator 26.0.3, SVG Export Plug-In . SVG Version: 6.00 Build 0)  -->
<svg version="1.1" id="Layer_1" xmlns="http://www.w3.org/2000/svg" xmlns:xlink="http://www.w3.org/1999/xlink" x="0px" y="0px"
	 viewBox="0 0 411.89 214" style="enable-background:new 0 0 411.89 214;" xml:space="preserve">
<style type="text/css">
	.st0{fill:none;stroke:#000000;stroke-width:0.75;stroke-miterlimit:10;}
	.st1{fill:none;stroke:#000000;stroke-width:2;stroke-miterlimit:10;}
	.st2{font-family:'MyriadPro-Regular';}
	.st3{font-size:16px;}
</style>
<g>
	<g>
		<path class="st0" d="M124.17,52.84c33.57,9.11,66.38-5.5,100.31-0.22c4.61,16.65,20.01,17,29.63,28.8
			c14.2,17.42,11.98,47.92,22.56,67.53c-35.27-0.04-69.39,3.91-104.72,2.7c-19.7-0.67-38.4-4.17-57.9-5.5
			c-16.41-1.12-30.93,4.8-46.9,7.03c1.77-10.71,4.67-24.22,11.77-33c6.87-8.49,17.93-10.94,24.46-19.67
			C112.74,87.99,120.05,67.69,124.17,52.84z"/>
		<path class="st0" d="M67.59,148.25c16.03-1.59,31.08-7.06,47.37-6.32c19.09,0.87,37.98,4.33,57.17,5.19
			c33.99,1.53,67.01-4.3,100.8-2.76"/>
		<path class="st0" d="M68.71,143.09c16.22-0.3,31.97-4.85,48.25-4.66c18.46,0.22,37.1,2.99,55.53,4.15
			c33.33,2.1,65.45-5.15,98.39-3.21"/>
		<path class="st0" d="M70.45,137.73c33.95,2.65,68.12-2.72,102.51,0.26c15.7,1.36,31.63,2.91,47.37,1.33
			c16.97-1.7,32.24-6.83,49.53-5.25"/>
		<path class="st0" d="M72.72,132.21c32.98,5.55,67.25-2.58,100.69,1.06c15.65,1.71,31.97,3.78,47.66,1.61
			c16.68-2.31,30.76-7.91,48.15-6.29"/>
		<path class="st0" d="M75.46,126.55c32.45,8.07,65.55-2.62,98.38,1.87c14.61,2,30.31,4.26,45.04,2.26
			c17.28-2.35,31.11-9.44,49.42-7.68"/>
		<path class="st0" d="M78.58,120.8c31.92,9.77,63.37-2.75,95.54,2.58c13.48,2.23,28.99,4.83,42.63,2.67
			c17.38-2.75,31.02-10.57,49.7-8.64"/>
		<path class="st0" d="M82.79,115.53c14.85,5.11,31.54,4.6,46.84,2.06c16.89-2.81,27.67-2.67,44.48,0.62
			c13.39,2.63,30.18,4.85,43.72,2.22c16.13-3.13,28.42-10.99,45.83-9.61"/>
		<path class="st0" d="M89.46,111.82c13.88,4.3,29.52-0.53,43.4-2.55c15.2-2.2,25.94,0.4,40.7,3.1c13.01,2.38,27.54,3.82,40.69,1.43
			c16.01-2.92,30.71-12.01,47.23-12.83"/>
		<path class="st0" d="M96.53,108.31c11.33,2.9,25.08-5.53,36.48-6.8c14.78-1.65,25.9,2.53,40.07,5.16
			c13.43,2.5,27.26,2.49,40.75,0.12c16.29-2.86,29.42-13.11,45.41-15.94"/>
		<path class="st0" d="M101.74,103.5c10.51,2.6,24.3-8.03,35.66-8.64c12.8-0.68,23.31,4.18,35.61,6.71
			c11.84,2.43,24.51,1.62,36.36-0.18c17.64-2.68,29.9-13.68,46.68-17.63"/>
		<path class="st0" d="M105.39,97.68c8.92,1.81,16.66-5.18,25.29-6.86c15.55-3.03,27.91,2.29,42.77,4.9
			c31.62,5.57,50.1-6.47,78.66-16.35"/>
		<path class="st0" d="M108.55,91.73c8.73,2.04,16.45-4.13,24.91-5.59c14.59-2.53,26.57,1.93,40.62,4.15
			c11.3,1.79,23.29,2.13,34.63,0.06c14.09-2.57,25.2-11.46,39.21-14.28"/>
		<path class="st0" d="M111.29,85.77c8.48,2.53,19.57-3.34,27.88-4.25c13.14-1.44,22.92,1.77,35.67,3.68
			c10.57,1.58,24.68,2.35,34.97,0.5c11.8-2.13,21.54-10.58,33.86-12.23"/>
		<path class="st0" d="M113.69,79.94c9.63,2.92,21.75-2.08,31.38-2.66c10.45-0.63,20.16,1.67,30.5,2.57
			c8.98,0.78,20.59,2.02,29.39,0.72c11.94-1.77,21.97-8.84,34.58-9.28"/>
		<path class="st0" d="M115.81,74.38c9.82,3.36,21.74-0.32,31.68-0.84c9.75-0.51,19.07,1.03,28.78,1.51
			c7.82,0.38,19.76,2.02,27.14,0.69c11.53-2.08,19.63-7.98,32.3-6.57"/>
		<path class="st0" d="M117.28,68.85c16.41,6.3,42.05,1.54,59.55,1.79c18.18,0.26,38.04-8.2,55.5-3.9"/>
		<path class="st0" d="M118.65,63.89c18.43,4.38,39.6,3.42,58.63,2.89c17.31-0.49,35.41-9.21,52.31-3.07"/>
		<path class="st0" d="M120.9,60.38c17.83,4.42,37.82,3.7,56.22,2.68c16.77-0.93,33.9-8.91,50.38-2.76"/>
		<path class="st0" d="M122.63,57.35c17.81,4.44,35.58,3.85,53.87,2.22c15.45-1.38,34.38-8.06,49.41-2.26"/>
		<path class="st0" d="M123.75,54.82c34.06,9.03,67.19-6.01,101.14-0.09"/>
		<path class="st0" d="M219.99,51.62c5.59,15.42,19.61,18.8,28.65,30.87c13.16,17.6,13.4,46.64,22.52,66.47"/>
		<path class="st0" d="M215.41,50.98c6.97,13.54,18.77,22.36,26.67,34.94c11.48,18.28,14.49,43.18,22.25,63.12"/>
		<path class="st0" d="M210.74,50.65c20.89,30.89,34.42,63.09,45.56,98.51"/>
		<path class="st0" d="M206,50.61c10.33,12.33,14.94,29.1,21.16,43.7c7.77,18.24,15.71,35.58,20.09,55.02"/>
		<path class="st0" d="M201.18,50.8c5.77,15.35,13.31,30.35,18.27,45.97c3.22,10.13,2.9,20.34,6.9,29.97
			c3.38,8.12,9.25,13.89,10.92,22.83"/>
		<path class="st0" d="M196.32,51.19c5.51,15.44,11.01,31.41,15.23,47.24c2.63,9.86,2.43,19.68,5.6,29.22
			c2.76,8.3,7.62,15,8.85,23.87"/>
		<path class="st0" d="M191.42,51.73c5.38,15.34,9.03,31.64,11.91,47.62c3.26,18.07,7.72,35.74,10.87,53.84"/>
		<path class="st0" d="M186.51,52.4c6.17,14.65,6.79,32.02,8.46,47.64c1.91,17.89,5.31,35.25,7.41,53.08"/>
		<path class="st0" d="M181.57,53.13c7.01,13.66,4.24,32.18,4.85,46.99c0.73,17.55,3.11,34.92,3.91,52.47"/>
		<path class="st0" d="M176.62,53.9c7.6,12.5,1.42,31.88,1.13,45.52c-0.38,17.49,0.93,34.94,0.37,52.51"/>
		<path class="st0" d="M171.67,54.64c7.71,11.3-1.56,30.88-2.67,43.11c-1.61,17.79-1.4,35.71-3.22,53.71"/>
		<path class="st0" d="M166.71,55.34c7.18,10.47-4.72,28.79-6.39,39.67c-2.84,18.49-4.1,37.6-6.95,56.45"/>
		<path class="st0" d="M161.76,55.94c4.8,12.2-6.97,25.5-9.68,37.16c-4.33,18.58-6.63,38.25-10.93,57.33"/>
		<path class="st0" d="M156.84,56.43c3.13,12.78-9.51,24.49-13.01,36.13c-3.29,10.97-0.73,22.49-4.93,33.46
			c-2.94,7.66-7.01,14.38-9.6,22.34"/>
		<path class="st0" d="M151.97,56.75c1.22,13.68-11.94,24.07-16.27,36.23c-4.01,11.25-1.31,23.29-6.37,34.48
			c-3.07,6.79-8.91,11.36-11.39,18.91"/>
		<path class="st0" d="M147.14,56.87c-0.78,14.44-13.85,24.43-19.38,37.08c-4.91,11.23-1.93,23.9-8.03,34.93
			c-3.45,6.25-9.79,9.38-12.59,16.7"/>
		<path class="st0" d="M142.38,56.73c-2.44,14.95-14.8,25.91-21.32,39.09c-5.31,10.72-5.26,23.06-11.44,33.52
			c-3.75,6.35-9.69,9.76-12.53,17.16"/>
		<path class="st0" d="M137.68,56.29c-3.23,15.21-14.44,28.48-22.02,41.78c-8.31,14.59-23.35,34.52-27.76,50.28"/>
		<path class="st0" d="M133.08,55.53c-4.28,15.25-12.9,31.56-21.61,44.82c-10.84,16.51-27.71,29.77-31.72,50.17"/>
		<path class="st0" d="M128.57,54.39c-4.99,15.24-11.38,34.02-20.93,47.1c-6.89,9.45-17.02,13.92-23.8,23.04
			c-6.22,8.37-8.88,17.88-11.07,27.81"/>
	</g>
</g>
<g>
	<g>
		<polyline class="st1" points="59.92,39.41 59.92,158.11 342.17,158.11 		"/>
		<g>
			<polygon points="57.01,41.4 59.91,30.56 62.82,41.4 			"/>
		</g>
		<g>
			<polygon points="340.19,161.02 351.03,158.11 340.19,155.21 			"/>
		</g>
	</g>
</g>
<g>
	<g>
		<line class="st1" x1="59.92" y1="158.11" x2="37.64" y2="177.61"/>
		<g>
			<polygon points="37.22,174.12 30.97,183.44 41.04,178.49 			"/>
		</g>
	</g>
</g>
<text transform="matrix(1 0 0 1 253.6256 64.1429)" class="st2 st3">δ(H(p, q) - E)</text>
</svg>
