<?xml version="1.0" encoding="utf-8"?>
<!-- Generator: Adobe Illustrator 26.0.3, SVG Export Plug-In . SVG Version: 6.00 Build 0)  -->
<svg version="1.1" id="Layer_1" xmlns="http://www.w3.org/2000/svg" xmlns:xlink="http://www.w3.org/1999/xlink" x="0px" y="0px"
	 viewBox="0 0 196.94 133.94" style="enable-background:new 0 0 196.94 133.94;" xml:space="preserve">
<style type="text/css">
	.st0{fill:#FFFFFF;}
	.st1{fill:none;stroke:#000000;stroke-width:2;stroke-miterlimit:10;}
	.st2{fill:none;stroke:#000000;stroke-width:3;stroke-miterlimit:10;}
	.st3{font-family:'TimesNewRomanPS-ItalicMT';}
	.st4{font-size:11.5682px;}
</style>
<rect class="st0" width="196.94" height="133.94"/>
<g>
	<path class="st0" d="M24,108.79V13.9"/>
	<g>
		<line class="st1" x1="24" y1="108.79" x2="24" y2="14.98"/>
		<g>
			<polygon points="28.09,18.3 27.36,18.98 24,15.37 20.65,18.98 19.91,18.3 24,13.9 			"/>
		</g>
	</g>
</g>
<g>
	<path class="st0" d="M23.59,108.79h156.44"/>
	<g>
		<line class="st1" x1="23.59" y1="108.79" x2="178.94" y2="108.79"/>
		<g>
			<polygon points="175.63,112.88 174.95,112.15 178.56,108.79 174.95,105.43 175.63,104.7 180.03,108.79 			"/>
		</g>
	</g>
</g>
<g>
	<g>
		<path class="st2" d="M74.91,35.69c-9.07,2.22-16.37,8.27-19.24,16.29c-5.15,14.39,5.46,31.01,15.79,33.05
			c13.27,2.62,18.94-20.18,41.13-23.5c18.74-2.8,32.26,10.83,35.99,6.61c1.98-2.24,0.81-9.06-15.73-30.78"/>
		<g>
			<path d="M74.07,32.45c1.83-0.37,3.62,0.81,3.99,2.64s-0.81,3.62-2.64,3.99c-1.83,0.37-3.62-0.81-3.99-2.64
				C71.06,34.61,72.24,32.82,74.07,32.45z"/>
		</g>
		<g>
			<polygon points="127.64,30.68 138.8,37.15 133.21,37.89 131.08,43.11 			"/>
		</g>
	</g>
</g>
<text transform="matrix(1 0 0 1 12.4444 18.8152)" class="st3 st4">p</text>
<text transform="matrix(1 0 0 1 173.358 120.0477)" class="st3 st4">q</text>
</svg>
